<?xml version="1.0" encoding="UTF-8"?>
<svg id="Layer_1" data-name="Layer 1" xmlns="http://www.w3.org/2000/svg" viewBox="0 0 256 256">
  <defs>
    <style>
      .cls-1 {
        fill: #f06047;
      }
    </style>
  </defs>
  <path class="cls-1" d="M174.31,36.22c-2.27-2.27-5.96-2.27-8.23,0L28.4,173.89c-2.27,2.27-2.27,5.96,0,8.23,2.27,2.27,5.96,2.27,8.23,0L174.31,44.45c2.27-2.27,2.27-5.96,0-8.23h0ZM223.71,85.62c-2.27-2.27-5.96-2.27-8.23,0L77.8,223.29c-2.27,2.27-2.27,5.96,0,8.23,2.27,2.27,5.96,2.27,8.23,0L223.71,93.85c2.27-2.27,2.27-5.96,0-8.23h0ZM124.45,163.82c1.51-2.22.93-5.23-1.29-6.74l-25.47-17.3-.05-.03c-2.1-1.39-4.88-1.19-6.76.49-1.87,1.68-2.39,4.42-1.25,6.66.03.05.05.1.08.15l8.24,14.81-14.96-8.15c-.05-.03-.11-.06-.16-.08-2.26-1.12-5-.58-6.65,1.32-1.67,1.92-1.83,4.72-.39,6.81l17.52,25.24c1.53,2.2,4.55,2.75,6.75,1.22,2.2-1.53,2.75-4.55,1.22-6.75l-7.53-10.85,12.15,6.62c2.16,1.17,4.83.77,6.56-.96l.02-.02c1.73-1.75,2.11-4.43.92-6.58l-6.7-12.05,11.02,7.48c2.22,1.5,5.23.93,6.74-1.29h0ZM75.39,206.42c-1.91-1.88-4.97-1.87-6.86.04-1.4,1.42-2.81,2.84-4.22,4.26l-18.52-18.52c-1.89-1.89-4.97-1.89-6.86,0-1.89,1.89-1.89,4.97,0,6.86l21.94,21.94c1.67,1.67,4.3,1.89,6.23.53.29-.2.47-.34,2.97-2.83,1.18-1.18,2.89-2.9,5.37-5.41,1.88-1.9,1.87-4.98-.04-6.86h0ZM59.23,171.88c-1.89,1.89-1.89,4.97,0,6.86l21.96,21.96c1.89,1.89,4.97,1.89,6.86,0,1.89-1.89,1.89-4.97,0-6.86l-21.96-21.96c-1.89-1.89-4.97-1.89-6.86,0h0ZM136.89,151.85c1.89-1.89,1.89-4.97,0-6.86l-21.96-21.95c-1.89-1.89-4.97-1.89-6.86,0-1.89,1.89-1.89,4.97,0,6.86l21.96,21.96c1.89,1.89,4.97,1.89,6.86,0h0ZM175.93,112.61l9.17-9.17c1.89-1.89,1.89-4.97,0-6.86-1.89-1.89-4.97-1.89-6.86,0l-5.74,5.74-4.02-4.02,5.06-5.06c1.89-1.89,1.89-4.97,0-6.86-1.89-1.89-4.97-1.89-6.86,0l-5.06,5.06-4.02-4.02,5.74-5.74c1.89-1.89,1.89-4.97,0-6.86-1.89-1.89-4.97-1.89-6.86,0l-9.17,9.17c-1.89,1.89-1.89,4.97,0,6.86l21.75,21.75c1.89,1.89,4.97,1.89,6.86,0h0ZM156.63,132.11c1.89-1.89,1.89-4.97,0-6.86l-18.52-18.52,2.66-2.66c1.89-1.89,1.89-4.97,0-6.86-1.89-1.89-4.97-1.89-6.86,0l-12.12,12.13c-1.89,1.89-1.89,4.97,0,6.86s4.97,1.89,6.86,0l2.61-2.61,18.52,18.52c1.89,1.89,4.97,1.89,6.86,0h0ZM168.64,65.14c0,1.29.51,2.52,1.43,3.43,0,0,8.21,8.18,10.64,10.61,2.93,2.93,10.64,10.58,10.72,10.66,1.9,1.88,4.96,1.88,6.85-.01h.01c.18-.2,4.47-4.52,6.17-6.28,6.72-6.96,5.78-17.82-2.24-25.83-8.42-8.42-18.92-9.25-26.12-2.05l-6.03,6.03c-.91.91-1.42,2.15-1.42,3.44ZM182.95,62.53c4.8-4.8,10.7.35,12.4,2.05,3.53,3.53,5.55,8.68,2.12,12.23-.88.91-1.77,1.81-2.66,2.72-2.46-2.44-5.6-5.57-7.24-7.21-2.4-2.4-4.8-4.79-7.21-7.19l2.6-2.6ZM50.39,135.43c-.01-.52-.02-1.04-.02-1.56,0-41.8,33.88-75.68,75.68-75.68.52,0,1.04,0,1.56.02l21.1-21.1c-7.28-1.7-14.86-2.6-22.66-2.6-54.87,0-99.36,44.48-99.36,99.36,0,7.8.9,15.38,2.6,22.66l21.1-21.1ZM201.72,132.31c.01.52.02,1.04.02,1.56,0,41.8-33.88,75.68-75.68,75.68-.52,0-1.04,0-1.56-.02l-21.1,21.1c7.28,1.7,14.86,2.6,22.66,2.6,54.87,0,99.36-44.48,99.36-99.36,0-7.8-.9-15.38-2.6-22.66l-21.1,21.1Z"/>
</svg>