<?xml version="1.0" encoding="UTF-8"?>
<svg id="Layer_1" data-name="Layer 1" xmlns="http://www.w3.org/2000/svg" viewBox="0 0 512 512">
  <defs>
    <style>
      .cls-1 {
        fill: #9053a1;
      }
    </style>
  </defs>
  <path class="cls-1" d="M406.42,114.89v-21.56c0-37.15-30.28-67.37-67.51-67.37h-165.61c-37.22,0-67.51,30.22-67.51,67.37v21.56h300.63ZM132.8,312.52v146.43c0,14.88,12.09,26.95,27,26.95h192.62c14.91,0,27-12.07,27-26.95v-146.43h-246.62ZM292.11,427.5h-72.01c-7.46,0-13.5-6.03-13.5-13.47s6.04-13.47,13.5-13.47h72.01c7.46,0,13.5,6.03,13.5,13.47s-6.04,13.47-13.5,13.47ZM292.11,370.01h-72.01c-7.46,0-13.5-6.03-13.5-13.47s6.04-13.47,13.5-13.47h72.01c7.46,0,13.5,6.03,13.5,13.47s-6.04,13.47-13.5,13.47Z"/>
  <path class="cls-1" d="M419.02,141.84H94.1c-37.22,0-67.51,30.22-67.51,67.37v107.8c0,37.15,30.28,67.37,67.51,67.37h11.7v-71.87h-8.1c-7.46,0-13.5-6.03-13.5-13.47s6.04-13.47,13.5-13.47h316.83c7.46,0,13.5,6.03,13.5,13.47s-6.04,13.47-13.5,13.47h-8.1v71.87h12.6c37.22,0,67.51-30.22,67.51-67.37v-107.8c0-37.15-30.28-67.37-67.51-67.37ZM140.9,226.28h-43.2c-7.46,0-13.5-6.03-13.5-13.47s6.04-13.47,13.5-13.47h43.2c7.46,0,13.5,6.03,13.5,13.47s-6.04,13.47-13.5,13.47Z"/>
</svg>